<svg width="46" height="46" viewBox="0 0 46 46" fill="none" xmlns="http://www.w3.org/2000/svg">
<path d="M31.3681 12.2935C27.7456 12.2935 26.2161 14.0223 23.6918 14.0223C21.1043 14.0223 19.1321 12.3069 15.9945 12.3069C12.9221 12.3069 9.64459 14.1814 7.56309 17.3784C4.64209 21.8845 5.13851 30.3734 9.87076 37.6031C11.5632 40.1906 13.8229 43.0943 16.788 43.125H16.8417C19.4196 43.125 20.1843 41.4383 23.7302 41.4192H23.7838C27.2779 41.4192 27.9775 43.1154 30.5439 43.1154H30.5976C33.5627 43.0848 35.9451 39.8667 37.6375 37.2887C38.8565 35.4353 39.3088 34.5038 40.2442 32.407C33.3978 29.808 32.2977 20.102 39.0673 16.3837C37.0012 13.7962 34.0974 12.2973 31.3604 12.2973L31.3681 12.2935Z" fill="white"/>
<path d="M30.5683 2.875C28.412 3.02067 25.8955 4.39492 24.4215 6.187C23.0856 7.81042 21.9874 10.2197 22.4167 12.558H22.5892C24.8854 12.558 27.2371 11.1742 28.6075 9.40317C29.93 7.7165 30.9344 5.32642 30.5683 2.875Z" fill="white"/>
</svg>
