<svg width="92" height="83" viewBox="0 0 92 83" fill="none" xmlns="http://www.w3.org/2000/svg">
<rect x="44.3906" y="9.58203" width="12.4521" height="13.3121" fill="#2757CB"/>
<line x1="0.962891" y1="74.0137" x2="91.3888" y2="74.0137" stroke="#00E4FF" stroke-linecap="round"/>
<path d="M23.8286 52.9135C24.0486 53.0803 24.3622 53.0373 24.5291 52.8173L27.2487 49.2321C27.4156 49.0121 27.3725 48.6984 27.1525 48.5315C26.9325 48.3646 26.6189 48.4077 26.452 48.6277L24.0346 51.8146L20.8477 49.3971C20.6277 49.2303 20.3141 49.2733 20.1472 49.4933C19.9803 49.7133 20.0233 50.027 20.2433 50.1939L23.8286 52.9135ZM37.0571 25.311C29.046 29.5522 25.6895 36.3888 24.3389 42.1353C23.6641 45.0067 23.4879 47.6121 23.4801 49.4998C23.4762 50.4442 23.5144 51.2107 23.5539 51.7429C23.5736 52.0091 23.5937 52.2169 23.609 52.3592C23.6166 52.4304 23.6231 52.4852 23.6277 52.5228C23.63 52.5416 23.6318 52.5561 23.6331 52.5662C23.6338 52.5712 23.6343 52.5752 23.6347 52.578C23.6349 52.5794 23.635 52.5805 23.6352 52.5814C23.6352 52.5818 23.6353 52.5823 23.6353 52.5825C23.6353 52.5828 23.6354 52.5831 24.1307 52.5151C24.6261 52.4471 24.6261 52.4472 24.6261 52.4473C24.6261 52.4472 24.6261 52.4473 24.6261 52.4471C24.6261 52.4468 24.626 52.4463 24.6259 52.4455C24.6257 52.4438 24.6253 52.4411 24.6248 52.4372C24.6238 52.4295 24.6222 52.4174 24.6202 52.401C24.6162 52.3683 24.6104 52.3185 24.6033 52.2525C24.5891 52.1204 24.57 51.9236 24.5512 51.669C24.5134 51.1596 24.4763 50.4194 24.4801 49.504C24.4877 47.6719 24.6589 45.1446 25.3124 42.3641C26.6185 36.8066 29.8422 30.2621 37.525 26.1948L37.0571 25.311Z" fill="#020430"/>
<path d="M17.8447 54.7832L28.0601 69.1832L18.6248 75.874L3.66869 54.7832L17.8447 54.7832Z" fill="white" stroke="#2757CB"/>
<path d="M35.4912 54.7832L25.2759 69.1832L34.7111 75.874L49.6672 54.7832L35.4912 54.7832Z" fill="white" stroke="#2757CB"/>
<path d="M17.4489 75.9034L16.4511 76.611L0.967523 54.7764L2.47173 54.7764L17.4489 75.9034Z" fill="#2757CB" stroke="#2757CB"/>
<rect x="23.7207" y="62.3887" width="20.8441" height="20.1105" fill="white" stroke="#2757CB"/>
<rect x="8.47852" y="62.3887" width="14.6801" height="20.1105" fill="white" stroke="#2757CB"/>
<rect x="5.78711" y="62.3887" width="1.68975" height="20.1105" fill="#2757CB" stroke="#2757CB"/>
<path fill-rule="evenodd" clip-rule="evenodd" d="M45.3809 7.32715C42.6194 7.32715 40.3809 9.56573 40.3809 12.3272V20.3544C40.3809 23.1158 42.6194 25.3544 45.3809 25.3544H48.5243L52.8708 29.3812C53.5109 29.9742 54.5504 29.5202 54.5504 28.6476V25.3544H55.03C57.7915 25.3544 60.03 23.1158 60.03 20.3544V12.3271C60.03 9.56572 57.7915 7.32715 55.03 7.32715H45.3809Z" fill="#00E4FF"/>
<g clip-path="url(#clip0_283_48293)">
<path d="M53.1542 13.3906H47.0049C46.7529 13.3906 46.5009 13.5942 46.5009 13.8487L46.0977 19.9558C46.0977 20.5156 46.5513 21.0246 47.1057 21.0246H53.003C53.6079 21.0246 54.0615 20.5156 54.0111 19.9558L53.6583 13.8487C53.6079 13.5942 53.4063 13.3906 53.1542 13.3906Z" stroke="white" stroke-width="1.3" stroke-linecap="round" stroke-linejoin="round"/>
<path d="M51.5907 14.4072V12.3715C51.5907 11.5063 50.9354 10.8447 50.0785 10.8447C49.2217 10.8447 48.5664 11.5063 48.5664 12.3715V14.4072" stroke="white" stroke-width="1.3" stroke-linecap="round" stroke-linejoin="round"/>
</g>
<rect x="54.3477" y="1" width="11.6946" height="11.6946" rx="5.84732" fill="#2757CB" stroke="white" stroke-width="2"/>
<path d="M60.8696 4.70215V8.46249H60.0746V5.45679H60.0525L59.1914 5.9966V5.29154L60.1223 4.70215H60.8696Z" fill="white"/>
<rect x="50.8209" y="35.4233" width="21.2611" height="44.8912" rx="4.5" transform="rotate(-11.9 50.8209 35.4233)" fill="#020430" stroke="#020430"/>
<rect x="52.8267" y="35.0014" width="21.2611" height="44.8912" rx="4.5" transform="rotate(-11.9 52.8267 35.0014)" fill="white" stroke="#020430"/>
<circle cx="71.6935" cy="72.9824" r="1.25259" transform="rotate(-11.9 71.6935 72.9824)" stroke="#020430"/>
<line x1="61.7944" y1="35.8032" x2="65.7454" y2="34.9705" stroke="#020430" stroke-linecap="round"/>
<rect x="65.6487" y="60.287" width="6.59316" height="0.930252" transform="rotate(-11.9 65.6487 60.287)" stroke="#020430" stroke-width="0.930252"/>
<rect x="64.2249" y="58.036" width="8.44806" height="0.930252" transform="rotate(-11.9 64.2249 58.036)" stroke="#020430" stroke-width="0.930252"/>
<rect x="62.2148" y="64.0186" width="14.8541" height="4.18636" rx="2.09318" transform="rotate(-11.9 62.2148 64.0186)" fill="#2757CB"/>
<defs>
<clipPath id="clip0_283_48293">
<rect width="11.3104" height="11.3104" fill="white" transform="translate(44.4004 10.2793)"/>
</clipPath>
</defs>
</svg>
